<svg width="15" height="19" viewBox="0 0 15 19" fill="none" xmlns="http://www.w3.org/2000/svg">
<path d="M14.2832 0.369889H1.42606C1.0745 0.369889 0.783203 0.661185 0.783203 1.01275V17.727C0.783203 18.0786 1.0745 18.3699 1.42606 18.3699H14.2832C14.6348 18.3699 14.9261 18.0786 14.9261 17.727V1.01275C14.9261 0.661185 14.6348 0.369889 14.2832 0.369889ZM5.92606 3.26275C5.92606 3.08194 6.06669 2.94132 6.24749 2.94132H6.89035C7.07115 2.94132 7.21177 3.08194 7.21177 3.26275V3.9056C7.21177 4.08641 7.07115 4.22703 6.89035 4.22703H6.24749C6.06669 4.22703 5.92606 4.08641 5.92606 3.9056V3.26275ZM5.92606 5.83418C5.92606 5.65337 6.06669 5.51275 6.24749 5.51275H6.89035C7.07115 5.51275 7.21177 5.65337 7.21177 5.83418V6.47703C7.21177 6.65784 7.07115 6.79846 6.89035 6.79846H6.24749C6.06669 6.79846 5.92606 6.65784 5.92606 6.47703V5.83418ZM5.92606 8.4056C5.92606 8.2248 6.06669 8.08418 6.24749 8.08418H6.89035C7.07115 8.08418 7.21177 8.2248 7.21177 8.4056V9.04846C7.21177 9.22927 7.07115 9.36989 6.89035 9.36989H6.24749C6.06669 9.36989 5.92606 9.22927 5.92606 9.04846V8.4056ZM5.92606 10.977C5.92606 10.7962 6.06669 10.6556 6.24749 10.6556H6.89035C7.07115 10.6556 7.21177 10.7962 7.21177 10.977V11.6199C7.21177 11.8007 7.07115 11.9413 6.89035 11.9413H6.24749C6.06669 11.9413 5.92606 11.8007 5.92606 11.6199V10.977ZM4.64035 14.1913C4.64035 14.3721 4.49972 14.5127 4.31892 14.5127H3.67606C3.49526 14.5127 3.35463 14.3721 3.35463 14.1913V13.5485C3.35463 13.3677 3.49526 13.227 3.67606 13.227H4.31892C4.49972 13.227 4.64035 13.3677 4.64035 13.5485V14.1913ZM4.64035 11.6199C4.64035 11.8007 4.49972 11.9413 4.31892 11.9413H3.67606C3.49526 11.9413 3.35463 11.8007 3.35463 11.6199V10.977C3.35463 10.7962 3.49526 10.6556 3.67606 10.6556H4.31892C4.49972 10.6556 4.64035 10.7962 4.64035 10.977V11.6199ZM4.64035 9.04846C4.64035 9.22927 4.49972 9.36989 4.31892 9.36989H3.67606C3.49526 9.36989 3.35463 9.22927 3.35463 9.04846V8.4056C3.35463 8.2248 3.49526 8.08418 3.67606 8.08418H4.31892C4.49972 8.08418 4.64035 8.2248 4.64035 8.4056V9.04846ZM4.64035 6.47703C4.64035 6.65784 4.49972 6.79846 4.31892 6.79846H3.67606C3.49526 6.79846 3.35463 6.65784 3.35463 6.47703V5.83418C3.35463 5.65337 3.49526 5.51275 3.67606 5.51275H4.31892C4.49972 5.51275 4.64035 5.65337 4.64035 5.83418V6.47703ZM4.64035 3.9056C4.64035 4.08641 4.49972 4.22703 4.31892 4.22703H3.67606C3.49526 4.22703 3.35463 4.08641 3.35463 3.9056V3.26275C3.35463 3.08194 3.49526 2.94132 3.67606 2.94132H4.31892C4.49972 2.94132 4.64035 3.08194 4.64035 3.26275V3.9056ZM9.7832 16.7627C9.7832 16.9436 9.64258 17.0842 9.46177 17.0842H6.24749C6.06669 17.0842 5.92606 16.9436 5.92606 16.7627V14.8342C5.92606 14.6534 6.06669 14.5127 6.24749 14.5127H9.46177C9.64258 14.5127 9.7832 14.6534 9.7832 14.8342V16.7627ZM9.7832 11.6199C9.7832 11.8007 9.64258 11.9413 9.46177 11.9413H8.81892C8.63811 11.9413 8.49749 11.8007 8.49749 11.6199V10.977C8.49749 10.7962 8.63811 10.6556 8.81892 10.6556H9.46177C9.64258 10.6556 9.7832 10.7962 9.7832 10.977V11.6199ZM9.7832 9.04846C9.7832 9.22927 9.64258 9.36989 9.46177 9.36989H8.81892C8.63811 9.36989 8.49749 9.22927 8.49749 9.04846V8.4056C8.49749 8.2248 8.63811 8.08418 8.81892 8.08418H9.46177C9.64258 8.08418 9.7832 8.2248 9.7832 8.4056V9.04846ZM9.7832 6.47703C9.7832 6.65784 9.64258 6.79846 9.46177 6.79846H8.81892C8.63811 6.79846 8.49749 6.65784 8.49749 6.47703V5.83418C8.49749 5.65337 8.63811 5.51275 8.81892 5.51275H9.46177C9.64258 5.51275 9.7832 5.65337 9.7832 5.83418V6.47703ZM9.7832 3.9056C9.7832 4.08641 9.64258 4.22703 9.46177 4.22703H8.81892C8.63811 4.22703 8.49749 4.08641 8.49749 3.9056V3.26275C8.49749 3.08194 8.63811 2.94132 8.81892 2.94132H9.46177C9.64258 2.94132 9.7832 3.08194 9.7832 3.26275V3.9056ZM12.3546 14.1913C12.3546 14.3721 12.214 14.5127 12.0332 14.5127H11.3903C11.2095 14.5127 11.0689 14.3721 11.0689 14.1913V13.5485C11.0689 13.3677 11.2095 13.227 11.3903 13.227H12.0332C12.214 13.227 12.3546 13.3677 12.3546 13.5485V14.1913ZM12.3546 11.6199C12.3546 11.8007 12.214 11.9413 12.0332 11.9413H11.3903C11.2095 11.9413 11.0689 11.8007 11.0689 11.6199V10.977C11.0689 10.7962 11.2095 10.6556 11.3903 10.6556H12.0332C12.214 10.6556 12.3546 10.7962 12.3546 10.977V11.6199ZM12.3546 9.04846C12.3546 9.22927 12.214 9.36989 12.0332 9.36989H11.3903C11.2095 9.36989 11.0689 9.22927 11.0689 9.04846V8.4056C11.0689 8.2248 11.2095 8.08418 11.3903 8.08418H12.0332C12.214 8.08418 12.3546 8.2248 12.3546 8.4056V9.04846ZM12.3546 6.47703C12.3546 6.65784 12.214 6.79846 12.0332 6.79846H11.3903C11.2095 6.79846 11.0689 6.65784 11.0689 6.47703V5.83418C11.0689 5.65337 11.2095 5.51275 11.3903 5.51275H12.0332C12.214 5.51275 12.3546 5.65337 12.3546 5.83418V6.47703ZM12.3546 3.9056C12.3546 4.08641 12.214 4.22703 12.0332 4.22703H11.3903C11.2095 4.22703 11.0689 4.08641 11.0689 3.9056V3.26275C11.0689 3.08194 11.2095 2.94132 11.3903 2.94132H12.0332C12.214 2.94132 12.3546 3.08194 12.3546 3.26275V3.9056Z" fill="#151439" fill-opacity="0.4"/>
</svg>
