<svg width="18" height="19" viewBox="0 0 18 19" fill="none" xmlns="http://www.w3.org/2000/svg">
<path d="M13.5882 10.0529C13.7087 9.92235 13.7087 9.72145 13.5882 9.60092L13.1261 9.13886C13.0056 9.01833 12.8047 9.01833 12.6741 9.13886L8.21429 13.5987L6.00446 11.3889C5.87388 11.2683 5.67299 11.2683 5.55246 11.3889L5.0904 11.8509C4.96987 11.9715 4.96987 12.1723 5.0904 12.3029L7.98326 15.1958C8.11384 15.3163 8.31473 15.3163 8.44531 15.1958L13.5882 10.0529ZM1.78571 17.0842V6.79846H15.9286V17.0842H1.78571ZM5.64286 4.86989C5.64286 5.05069 5.50223 5.19132 5.32143 5.19132H4.67857C4.49777 5.19132 4.35714 5.05069 4.35714 4.86989V1.97703C4.35714 1.79623 4.49777 1.6556 4.67857 1.6556H5.32143C5.50223 1.6556 5.64286 1.79623 5.64286 1.97703V4.86989ZM13.3571 4.86989C13.3571 5.05069 13.2165 5.19132 13.0357 5.19132H12.3929C12.2121 5.19132 12.0714 5.05069 12.0714 4.86989V1.97703C12.0714 1.79623 12.2121 1.6556 12.3929 1.6556H13.0357C13.2165 1.6556 13.3571 1.79623 13.3571 1.97703V4.86989ZM17.2143 4.22703C17.2143 3.52391 16.6317 2.94132 15.9286 2.94132H14.6429V1.97703C14.6429 1.0931 13.9196 0.369889 13.0357 0.369889H12.3929C11.5089 0.369889 10.7857 1.0931 10.7857 1.97703V2.94132H6.92857V1.97703C6.92857 1.0931 6.20536 0.369889 5.32143 0.369889H4.67857C3.79464 0.369889 3.07143 1.0931 3.07143 1.97703V2.94132H1.78571C1.08259 2.94132 0.5 3.52391 0.5 4.22703V17.0842C0.5 17.7873 1.08259 18.3699 1.78571 18.3699H15.9286C16.6317 18.3699 17.2143 17.7873 17.2143 17.0842V4.22703Z" fill="#151439" fill-opacity="0.4"/>
</svg>
