<svg width="250" height="250" viewBox="0 0 250 250" fill="none" xmlns="http://www.w3.org/2000/svg">
<path d="M225.399 11.306C225.402 10.0758 225.772 8.96806 226.583 8.04083C227.164 7.37371 227.786 6.74028 228.404 6.10376C229.291 5.18878 230.053 4.17892 230.687 3.07114C231.213 2.15003 231.81 1.28707 232.636 0.601592C233.441 -0.0655217 234.331 -0.493943 235.415 -0.469462C236.452 -0.444981 237.3 -0.00431409 238.065 0.644439C238.695 1.17997 239.231 1.81342 239.616 2.54174C240.556 4.31969 241.789 5.85895 243.227 7.25132C243.784 7.78991 244.298 8.37133 244.641 9.07823C245.146 10.1156 245.204 11.2081 245.03 12.3312C244.871 13.3686 244.568 14.3509 243.861 15.1588C242.995 16.1472 241.881 16.5052 240.599 16.4134C239.433 16.3308 238.34 15.9513 237.235 15.6147C236.712 15.4556 236.174 15.3026 235.635 15.2444C234.8 15.1557 233.995 15.3913 233.193 15.6208C232.29 15.8779 231.384 16.135 230.463 16.3216C229.533 16.5114 228.603 16.441 227.731 16.0125C226.675 15.4923 226.041 14.611 225.738 13.5093C225.543 12.7963 225.457 12.0527 225.322 11.3213C225.347 11.3152 225.374 11.3121 225.399 11.306Z" fill="#F7AAA4"/>
<path d="M228.064 0.760701C228.076 1.43088 227.954 2.07657 227.679 2.69166C226.92 4.38699 225.169 4.86438 223.673 3.76884C222.504 2.912 221.901 1.70322 221.635 0.313911C221.436 -0.726542 221.497 -1.74862 221.932 -2.72787C222.694 -4.45074 224.468 -4.92507 225.974 -3.79281C227.183 -2.88395 227.77 -1.61092 228.015 -0.154283C228.04 -0.0165763 228.058 0.124187 228.064 0.261894C228.076 0.424082 228.067 0.592392 228.064 0.760701Z" fill="#F7AAA4"/>
<path d="M243.405 0.867719C243.481 -0.800082 244.017 -2.27203 245.299 -3.40124C245.951 -3.97656 246.713 -4.32236 247.609 -4.18465C248.607 -4.03164 249.237 -3.39512 249.611 -2.49848C250.244 -0.968392 250.048 0.537207 249.381 2.00304C248.993 2.85989 248.42 3.5821 247.606 4.08091C246.101 4.99897 244.497 4.48179 243.79 2.86295C243.518 2.23867 243.399 1.61134 243.405 0.867719Z" fill="#F7AAA4"/>
<path d="M206.138 105.635C207.142 106.581 207.42 107.778 207.319 109.099C207.264 109.831 207.078 110.532 206.772 111.199C206.138 112.588 205.226 113.729 203.803 114.372C202.701 114.868 201.609 114.889 200.621 114.081C199.926 113.512 199.611 112.729 199.504 111.863C199.302 110.201 199.767 108.699 200.731 107.361C201.092 106.863 201.536 106.4 202.013 106.015C203.038 105.192 204.201 104.843 205.508 105.265C205.722 105.388 205.93 105.513 206.138 105.635Z" fill="#F7AAA4"/>
<path d="M189.24 123.051C189.864 121.989 190.739 121.221 191.908 120.826C192.747 120.545 193.604 120.309 194.457 120.07C195.688 119.727 196.853 119.241 197.958 118.604C198.876 118.075 199.828 117.631 200.887 117.457C201.918 117.285 202.903 117.368 203.825 117.934C204.709 118.479 205.22 119.287 205.55 120.232C205.826 121.016 205.967 121.83 205.933 122.653C205.847 124.66 206.135 126.613 206.677 128.541C206.888 129.287 207.035 130.049 206.976 130.833C206.891 131.983 206.386 132.957 205.673 133.838C205.012 134.655 204.256 135.35 203.237 135.689C201.991 136.109 200.85 135.855 199.785 135.129C198.821 134.471 198.068 133.593 197.285 132.742C196.915 132.338 196.526 131.938 196.088 131.616C195.412 131.117 194.598 130.915 193.79 130.71C192.881 130.478 191.966 130.242 191.079 129.939C190.179 129.633 189.411 129.104 188.876 128.293C188.224 127.311 188.123 126.23 188.417 125.126C188.606 124.41 188.909 123.724 189.163 123.026C189.191 123.032 189.215 123.042 189.24 123.051Z" fill="#F7AAA4"/>
<path d="M207.506 113.705C208.654 111.976 210.031 110.816 211.962 110.44C212.837 110.269 213.697 110.336 214.465 110.838C215.554 111.548 215.857 112.613 215.71 113.834C215.545 115.214 214.869 116.349 213.902 117.313C212.861 118.347 211.643 119.045 210.153 119.183C208.709 119.317 207.524 118.666 207.038 117.46C206.701 116.628 206.747 115.774 207.01 114.938C207.157 114.47 207.377 114.023 207.506 113.705Z" fill="#F7AAA4"/>
<path d="M196.86 115.287C196.532 115.872 196.101 116.367 195.553 116.759C194.044 117.839 192.291 117.371 191.55 115.67C190.972 114.342 191.061 112.992 191.532 111.658C191.884 110.66 192.453 109.81 193.322 109.179C194.849 108.077 196.621 108.561 197.349 110.299C197.937 111.695 197.802 113.09 197.279 114.47C197.23 114.602 197.175 114.73 197.111 114.856C197.037 115.003 196.945 115.143 196.86 115.287Z" fill="#F7AAA4"/>
<path d="M210.052 123.118C210.961 121.717 212.167 120.716 213.84 120.385C214.694 120.217 215.527 120.303 216.231 120.872C217.017 121.508 217.24 122.374 217.109 123.335C216.885 124.976 215.955 126.178 214.642 127.105C213.874 127.647 213.017 127.987 212.063 128.005C210.3 128.039 209.174 126.784 209.382 125.031C209.458 124.361 209.673 123.758 210.052 123.118Z" fill="#F7AAA4"/>
<path d="M128.226 193.493C128.64 194.809 128.3 195.99 127.565 197.092C127.161 197.704 126.653 198.224 126.063 198.655C124.833 199.558 123.477 200.109 121.923 199.974C120.717 199.87 119.756 199.356 119.288 198.169C118.96 197.333 119.067 196.495 119.398 195.687C120.034 194.138 121.173 193.055 122.666 192.357C123.223 192.097 123.838 191.911 124.444 191.807C125.742 191.586 126.926 191.853 127.859 192.859C127.985 193.074 128.104 193.285 128.226 193.493Z" fill="#F7AAA4"/>
<path d="M104.975 200.439C106.037 199.818 107.179 199.576 108.39 199.803C109.26 199.965 110.122 200.179 110.982 200.387C112.222 200.687 113.479 200.834 114.752 200.819C115.811 200.807 116.861 200.883 117.868 201.247C118.85 201.602 119.673 202.153 120.2 203.099C120.704 204.004 120.756 204.959 120.585 205.948C120.444 206.765 120.169 207.545 119.737 208.246C118.682 209.956 117.981 211.802 117.513 213.748C117.332 214.501 117.09 215.238 116.656 215.896C116.016 216.86 115.104 217.463 114.052 217.882C113.076 218.271 112.078 218.51 111.022 218.311C109.731 218.069 108.859 217.289 108.286 216.135C107.766 215.088 107.537 213.956 107.267 212.83C107.139 212.297 106.998 211.759 106.775 211.263C106.426 210.498 105.814 209.926 105.211 209.351C104.532 208.702 103.849 208.053 103.222 207.355C102.588 206.648 102.175 205.813 102.102 204.843C102.013 203.668 102.454 202.676 103.249 201.856C103.763 201.324 104.363 200.874 104.923 200.387C104.942 200.403 104.96 200.421 104.975 200.439Z" fill="#F7AAA4"/>
<path d="M125.481 201.204C127.327 200.256 129.095 199.919 130.965 200.528C131.813 200.807 132.529 201.284 132.954 202.098C133.557 203.249 133.303 204.326 132.581 205.32C131.764 206.446 130.619 207.104 129.303 207.475C127.893 207.869 126.485 207.882 125.12 207.276C123.795 206.688 123.079 205.541 123.244 204.252C123.358 203.362 123.814 202.64 124.45 202.037C124.802 201.7 125.212 201.419 125.481 201.204Z" fill="#F7AAA4"/>
<path d="M115.416 197.388C114.844 197.74 114.229 197.961 113.559 198.037C111.714 198.242 110.413 196.978 110.6 195.133C110.744 193.692 111.481 192.559 112.543 191.623C113.339 190.925 114.251 190.46 115.316 190.335C117.188 190.117 118.495 191.406 118.284 193.279C118.116 194.781 117.317 195.935 116.185 196.883C116.077 196.972 115.967 197.061 115.851 197.138C115.713 197.226 115.563 197.303 115.416 197.388Z" fill="#F7AAA4"/>
<path d="M123.107 210.66C124.585 209.88 126.124 209.595 127.749 210.128C128.575 210.397 129.261 210.881 129.594 211.719C129.971 212.656 129.741 213.525 129.157 214.299C128.159 215.621 126.764 216.214 125.163 216.383C124.227 216.481 123.315 216.358 122.473 215.908C120.919 215.076 120.548 213.433 121.586 212.004C121.984 211.456 122.464 211.034 123.107 210.66Z" fill="#F7AAA4"/>
<path d="M12.9531 231.185C12.6471 232.528 11.7565 233.376 10.5661 233.957C9.9082 234.279 9.20742 234.474 8.4791 234.548C6.96126 234.704 5.51381 234.499 4.23772 233.596C3.24929 232.898 2.6801 231.968 2.87595 230.707C3.01365 229.82 3.53083 229.15 4.22243 228.62C5.55359 227.604 7.08367 227.243 8.72697 227.396C9.339 227.454 9.96329 227.601 10.5386 227.819C11.7688 228.284 12.6562 229.11 12.9561 230.453C12.9561 230.698 12.9531 230.94 12.9531 231.185Z" fill="#F7AAA4"/>
<path d="M-10.6255 225.441C-9.3953 225.441 -8.28753 225.808 -7.35418 226.616C-6.68401 227.197 -6.04748 227.815 -5.41097 228.431C-4.49292 229.315 -3.48308 230.074 -2.37224 230.704C-1.45113 231.228 -0.585105 231.824 0.100368 232.647C0.770542 233.449 1.19895 234.34 1.17753 235.423C1.15611 236.46 0.718512 237.311 0.0728197 238.076C-0.462708 238.71 -1.0931 239.245 -1.82142 239.631C-3.59631 240.576 -5.13249 241.813 -6.51874 243.257C-7.05427 243.817 -7.63571 244.331 -8.3426 244.677C-9.37999 245.185 -10.4725 245.246 -11.5925 245.078C-12.6299 244.922 -13.6122 244.622 -14.4231 243.918C-15.4146 243.055 -15.7757 241.944 -15.687 240.659C-15.6074 239.493 -15.2341 238.401 -14.8974 237.293C-14.7383 236.769 -14.5884 236.231 -14.5333 235.689C-14.4476 234.854 -14.6863 234.049 -14.9158 233.247C-15.1759 232.344 -15.436 231.439 -15.6258 230.521C-15.8155 229.59 -15.7512 228.66 -15.3259 227.788C-14.8087 226.729 -13.9305 226.096 -12.8257 225.787C-12.1127 225.588 -11.3691 225.502 -10.6377 225.364C-10.6347 225.392 -10.6285 225.416 -10.6255 225.441Z" fill="#F7AAA4"/>
<path d="M6.68891 236.454C8.76063 236.567 10.459 237.167 11.7626 238.639C12.3533 239.306 12.7296 240.084 12.6868 240.999C12.6256 242.299 11.8606 243.098 10.7375 243.591C9.46446 244.147 8.14248 244.141 6.82049 243.796C5.40364 243.422 4.18265 242.725 3.3105 241.51C2.46284 240.331 2.42611 238.982 3.21868 237.951C3.76645 237.238 4.52539 236.846 5.37917 236.647C5.85349 236.54 6.34923 236.503 6.68891 236.454Z" fill="#F7AAA4"/>
<path d="M-0.0709834 228.079C-0.741156 228.094 -1.38685 227.972 -2.00194 227.699C-3.69726 226.946 -4.18076 225.199 -3.09135 223.697C-2.23757 222.524 -1.03186 221.919 0.360508 221.649C1.3979 221.447 2.41999 221.505 3.40536 221.937C5.13128 222.696 5.61171 224.468 4.48252 225.976C3.57671 227.188 2.30675 227.779 0.850124 228.03C0.712417 228.054 0.571655 228.073 0.433949 228.079C0.26564 228.088 0.0973246 228.079 -0.0709834 228.079Z" fill="#F7AAA4"/>
<path d="M-0.135267 243.416C1.53252 243.49 3.00752 244.019 4.13978 245.298C4.71815 245.95 5.06395 246.709 4.92931 247.606C4.77936 248.603 4.14591 249.237 3.24928 249.61C1.72225 250.246 0.216644 250.057 -1.25224 249.393C-2.10908 249.004 -2.83434 248.438 -3.33315 247.624C-4.25426 246.121 -3.74321 244.515 -2.12744 243.805C-1.50623 243.536 -0.878888 243.413 -0.135267 243.416Z" fill="#F7AAA4"/>
</svg>
