<svg width="91" height="11" viewBox="0 0 91 11" fill="none" xmlns="http://www.w3.org/2000/svg">
<path opacity="0.3" d="M85.1429 2.07143C87.1518 2.07143 88.7857 3.70536 88.7857 5.71429C88.7857 7.72321 87.1518 9.35714 85.1429 9.35714C83.1339 9.35714 81.5 7.72321 81.5 5.71429C81.5 3.70536 83.1339 2.07143 85.1429 2.07143ZM90.2857 5.71429C90.2857 2.875 87.9821 0.571428 85.1429 0.571428C82.3036 0.571428 80 2.875 80 5.71429C80 8.55357 82.3036 10.8571 85.1429 10.8571C87.9821 10.8571 90.2857 8.55357 90.2857 5.71429Z" fill="#35354C"/>
<path opacity="0.3" d="M65.1429 2.07143C67.1518 2.07143 68.7857 3.70536 68.7857 5.71429C68.7857 7.72321 67.1518 9.35714 65.1429 9.35714C63.1339 9.35714 61.5 7.72321 61.5 5.71429C61.5 3.70536 63.1339 2.07143 65.1429 2.07143ZM70.2857 5.71429C70.2857 2.875 67.9821 0.571428 65.1429 0.571428C62.3036 0.571428 60 2.875 60 5.71429C60 8.55357 62.3036 10.8571 65.1429 10.8571C67.9821 10.8571 70.2857 8.55357 70.2857 5.71429Z" fill="#35354C"/>
<path opacity="0.3" d="M45.1429 2.07143C47.1518 2.07143 48.7857 3.70536 48.7857 5.71429C48.7857 7.72321 47.1518 9.35714 45.1429 9.35714C43.1339 9.35714 41.5 7.72321 41.5 5.71429C41.5 3.70536 43.1339 2.07143 45.1429 2.07143ZM50.2857 5.71429C50.2857 2.875 47.9821 0.571428 45.1429 0.571428C42.3036 0.571428 40 2.875 40 5.71429C40 8.55357 42.3036 10.8571 45.1429 10.8571C47.9821 10.8571 50.2857 8.55357 50.2857 5.71429Z" fill="#35354C"/>
<path opacity="0.3" d="M25.1429 2.07143C27.1518 2.07143 28.7857 3.70536 28.7857 5.71429C28.7857 7.72321 27.1518 9.35714 25.1429 9.35714C23.1339 9.35714 21.5 7.72321 21.5 5.71429C21.5 3.70536 23.1339 2.07143 25.1429 2.07143ZM30.2857 5.71429C30.2857 2.875 27.9821 0.571428 25.1429 0.571428C22.3036 0.571428 20 2.875 20 5.71429C20 8.55357 22.3036 10.8571 25.1429 10.8571C27.9821 10.8571 30.2857 8.55357 30.2857 5.71429Z" fill="#35354C"/>
<path d="M10.2857 5.71429C10.2857 2.875 7.98214 0.571428 5.14286 0.571428C2.30357 0.571428 0 2.875 0 5.71429C0 8.55357 2.30357 10.8571 5.14286 10.8571C7.98214 10.8571 10.2857 8.55357 10.2857 5.71429Z" fill="#35354C"/>
</svg>
